<?xml version="1.0" encoding="UTF-8" standalone="no"?>
<svg
   xmlns:osb="http://www.openswatchbook.org/uri/2009/osb"
   xmlns:dc="http://purl.org/dc/elements/1.1/"
   xmlns:cc="http://creativecommons.org/ns#"
   xmlns:rdf="http://www.w3.org/1999/02/22-rdf-syntax-ns#"
   xmlns:svg="http://www.w3.org/2000/svg"
   xmlns="http://www.w3.org/2000/svg"
   xmlns:sodipodi="http://sodipodi.sourceforge.net/DTD/sodipodi-0.dtd"
   xmlns:inkscape="http://www.inkscape.org/namespaces/inkscape"
   version="1.1"
   x="0px"
   y="0px"
   viewBox="0 0 60 75"
   style="enable-background:new 0 0 60 60;"
   xml:space="preserve"
   id="svg36"
   sodipodi:docname="database.svg"
   inkscape:version="1.0.2 (e86c870879, 2021-01-15, custom)"><metadata
     id="metadata42"><rdf:RDF><cc:Work
         rdf:about=""><dc:format>image/svg+xml</dc:format><dc:type
           rdf:resource="http://purl.org/dc/dcmitype/StillImage" /></cc:Work></rdf:RDF></metadata><defs
     id="defs40"><linearGradient
       id="linearGradient1000"
       osb:paint="solid"><stop
         style="stop-color:#000000;stop-opacity:1;"
         offset="0"
         id="stop998" /></linearGradient></defs><sodipodi:namedview
     pagecolor="#ffffff"
     bordercolor="#666666"
     borderopacity="1"
     objecttolerance="10"
     gridtolerance="10"
     guidetolerance="10"
     inkscape:pageopacity="0"
     inkscape:pageshadow="2"
     inkscape:window-width="1920"
     inkscape:window-height="1017"
     id="namedview38"
     showgrid="false"
     inkscape:lockguides="false"
     inkscape:zoom="11.013333"
     inkscape:cx="27.051488"
     inkscape:cy="30.927038"
     inkscape:window-x="1912"
     inkscape:window-y="-8"
     inkscape:window-maximized="1"
     inkscape:current-layer="svg36"
     showguides="false" /><g
     id="g30"
     style="fill:#ff5850;fill-opacity:1"
     transform="matrix(0.76298395,0,0,0.76298395,7.1728729,8.4551266)"><path
       d="m 10.5,6.125 c -2.481,0 -4.5,2.019 -4.5,4.5 0,2.481 2.019,4.5 4.5,4.5 2.481,0 4.5,-2.019 4.5,-4.5 0,-2.481 -2.019,-4.5 -4.5,-4.5 z m 0,7 c -1.378,0 -2.5,-1.121 -2.5,-2.5 0,-1.379 1.122,-2.5 2.5,-2.5 1.378,0 2.5,1.121 2.5,2.5 0,1.379 -1.122,2.5 -2.5,2.5 z"
       id="path2"
       style="fill:#ff5850;fill-opacity:1" /><circle
       cx="50"
       cy="9.125"
       r="1"
       id="circle4"
       style="fill:#ff5850;fill-opacity:1" /><circle
       cx="46"
       cy="9.125"
       r="1"
       id="circle6"
       style="fill:#ff5850;fill-opacity:1" /><circle
       cx="52"
       cy="12.125"
       r="1"
       id="circle8"
       style="fill:#ff5850;fill-opacity:1" /><circle
       cx="48"
       cy="12.125"
       r="1"
       id="circle10"
       style="fill:#ff5850;fill-opacity:1" /><circle
       cx="42"
       cy="9.125"
       r="1"
       id="circle12"
       style="fill:#ff5850;fill-opacity:1" /><circle
       cx="44"
       cy="12.125"
       r="1"
       id="circle14"
       style="fill:#ff5850;fill-opacity:1" /><circle
       cx="38"
       cy="9.125"
       r="1"
       id="circle16"
       style="fill:#ff5850;fill-opacity:1" /><circle
       cx="40"
       cy="12.125"
       r="1"
       id="circle18"
       style="fill:#ff5850;fill-opacity:1" /><circle
       cx="34"
       cy="9.125"
       r="1"
       id="circle20"
       style="fill:#ff5850;fill-opacity:1" /><circle
       cx="36"
       cy="12.125"
       r="1"
       id="circle22"
       style="fill:#ff5850;fill-opacity:1" /><path
       d="m 10.5,25.125 c -2.481,0 -4.5,2.019 -4.5,4.5 0,2.481 2.019,4.5 4.5,4.5 2.481,0 4.5,-2.019 4.5,-4.5 0,-2.481 -2.019,-4.5 -4.5,-4.5 z m 0,7 c -1.378,0 -2.5,-1.121 -2.5,-2.5 0,-1.379 1.122,-2.5 2.5,-2.5 1.378,0 2.5,1.121 2.5,2.5 0,1.379 -1.122,2.5 -2.5,2.5 z"
       id="path24"
       style="fill:#ff5850;fill-opacity:1" /><path
       d="m 10.5,44.125 c -2.481,0 -4.5,2.019 -4.5,4.5 0,2.481 2.019,4.5 4.5,4.5 2.481,0 4.5,-2.019 4.5,-4.5 0,-2.481 -2.019,-4.5 -4.5,-4.5 z m 0,7 c -1.378,0 -2.5,-1.121 -2.5,-2.5 0,-1.379 1.122,-2.5 2.5,-2.5 1.378,0 2.5,1.121 2.5,2.5 0,1.379 -1.122,2.5 -2.5,2.5 z"
       id="path26"
       style="fill:#ff5850;fill-opacity:1" /><path
       d="M 60,16.517 V 4.733 C 60,2.192 57.933,0.125 55.392,0.125 H 4.608 C 2.067,0.125 0,2.192 0,4.733 V 16.516 C 0,17.985 0.703,19.28 1.777,20.124 0.703,20.969 0,22.265 0,23.733 V 35.516 C 0,36.985 0.703,38.28 1.777,39.124 0.703,39.969 0,41.265 0,42.733 v 11.783 c 0,2.541 2.067,4.608 4.608,4.608 h 27.875 c 2.682,0.494 5.622,0.75 8.517,0.75 8.672,0 17.816,-2.249 18.895,-6.553 C 59.962,53.188 60,53.036 60,52.875 v -9 V 43.5 43.125 34.875 34.5 34.125 25.5 25.125 C 60,24.975 59.963,24.836 59.904,24.709 59.557,23.245 58.256,22.012 56.342,21.024 58.428,20.585 60,18.732 60,16.517 Z m -58,19 V 23.733 c 0,-1.438 1.17,-2.608 2.608,-2.608 h 20.86 c -1.809,0.971 -3.037,2.169 -3.372,3.584 C 22.037,24.837 22,24.975 22,25.125 v 0.375 8.625 0.375 0.375 3.25 H 4.608 C 3.17,38.125 2,36.955 2,35.517 Z M 24.626,29.38 c 0.045,0.029 0.093,0.058 0.139,0.087 0.176,0.11 0.359,0.218 0.55,0.324 0.055,0.03 0.108,0.061 0.163,0.09 0.233,0.125 0.475,0.247 0.727,0.364 0.04,0.019 0.083,0.037 0.123,0.055 0.221,0.101 0.448,0.198 0.682,0.293 0.069,0.028 0.137,0.056 0.206,0.083 0.276,0.108 0.557,0.214 0.848,0.314 0.016,0.005 0.032,0.01 0.048,0.016 0.278,0.095 0.564,0.186 0.855,0.274 0.078,0.024 0.157,0.047 0.236,0.07 0.288,0.084 0.58,0.166 0.879,0.244 0.024,0.006 0.047,0.013 0.071,0.019 0.322,0.083 0.651,0.16 0.985,0.235 0.084,0.019 0.169,0.037 0.253,0.055 0.286,0.062 0.575,0.121 0.867,0.177 0.058,0.011 0.116,0.023 0.174,0.034 0.343,0.064 0.69,0.123 1.041,0.179 0.083,0.013 0.168,0.026 0.251,0.039 0.291,0.045 0.584,0.087 0.88,0.126 0.081,0.011 0.161,0.022 0.243,0.032 0.358,0.045 0.718,0.087 1.081,0.125 0.073,0.008 0.147,0.014 0.22,0.021 0.305,0.03 0.612,0.057 0.919,0.082 0.093,0.007 0.185,0.015 0.278,0.022 0.367,0.027 0.736,0.051 1.105,0.07 0.052,0.003 0.105,0.004 0.158,0.007 0.325,0.016 0.651,0.028 0.977,0.037 0.098,0.003 0.196,0.006 0.295,0.008 0.373,0.008 0.746,0.014 1.118,0.014 0.372,0 0.745,-0.006 1.118,-0.014 0.098,-0.002 0.196,-0.005 0.295,-0.008 0.326,-0.009 0.651,-0.021 0.977,-0.037 0.053,-0.003 0.105,-0.004 0.158,-0.007 0.369,-0.019 0.738,-0.043 1.105,-0.07 0.093,-0.007 0.185,-0.014 0.278,-0.022 0.308,-0.024 0.614,-0.052 0.919,-0.082 0.073,-0.007 0.147,-0.014 0.22,-0.021 0.363,-0.038 0.723,-0.079 1.081,-0.125 0.081,-0.01 0.162,-0.021 0.243,-0.032 0.295,-0.039 0.589,-0.081 0.88,-0.126 0.084,-0.013 0.168,-0.025 0.251,-0.039 0.351,-0.056 0.698,-0.115 1.041,-0.179 0.059,-0.011 0.116,-0.023 0.174,-0.034 0.293,-0.056 0.582,-0.115 0.867,-0.177 0.085,-0.019 0.169,-0.037 0.253,-0.055 0.333,-0.075 0.663,-0.152 0.985,-0.235 0.024,-0.006 0.047,-0.013 0.071,-0.019 0.299,-0.077 0.591,-0.159 0.879,-0.244 0.079,-0.023 0.158,-0.046 0.236,-0.07 0.291,-0.088 0.577,-0.179 0.855,-0.274 0.016,-0.005 0.032,-0.01 0.048,-0.016 0.291,-0.101 0.573,-0.206 0.848,-0.314 0.07,-0.027 0.138,-0.055 0.206,-0.083 0.234,-0.095 0.461,-0.192 0.682,-0.293 0.041,-0.019 0.083,-0.036 0.123,-0.055 0.252,-0.117 0.493,-0.239 0.727,-0.364 0.056,-0.03 0.109,-0.06 0.163,-0.09 0.19,-0.105 0.373,-0.213 0.55,-0.324 0.046,-0.029 0.094,-0.057 0.139,-0.087 0.207,-0.134 0.403,-0.272 0.589,-0.414 0.012,-0.009 0.026,-0.017 0.038,-0.026 v 4.988 c -0.024,0.116 -0.04,0.234 -0.021,0.353 C 57.99,34.354 58,34.426 58,34.5 c 0,0.11 -0.031,0.222 -0.058,0.333 -0.021,0.086 -0.048,0.173 -0.084,0.259 -0.032,0.075 -0.072,0.151 -0.116,0.226 -0.043,0.075 -0.09,0.151 -0.144,0.226 -0.077,0.104 -0.164,0.208 -0.263,0.312 -0.037,0.04 -0.074,0.08 -0.114,0.12 -2.117,2.048 -8.364,3.898 -16.22,3.898 -7.851,0 -14.095,-1.848 -16.216,-3.895 -0.044,-0.044 -0.084,-0.087 -0.124,-0.131 -0.094,-0.1 -0.179,-0.2 -0.253,-0.3 C 24.351,35.469 24.301,35.39 24.256,35.31 24.215,35.239 24.177,35.168 24.146,35.096 24.107,35.005 24.08,34.915 24.058,34.825 24.031,34.717 24,34.608 24,34.5 c 0,-0.071 0.009,-0.142 0.021,-0.212 0.021,-0.13 0.008,-0.26 -0.021,-0.385 v -4.964 c 0.012,0.009 0.026,0.017 0.038,0.026 0.185,0.142 0.381,0.28 0.588,0.415 z m 33.231,14.712 c -0.032,0.075 -0.072,0.151 -0.116,0.226 -0.043,0.075 -0.09,0.151 -0.144,0.226 -0.077,0.104 -0.164,0.208 -0.263,0.312 -0.037,0.04 -0.074,0.08 -0.114,0.12 -2.117,2.048 -8.364,3.898 -16.22,3.898 -7.851,0 -14.095,-1.848 -16.216,-3.895 -0.044,-0.044 -0.084,-0.087 -0.124,-0.131 -0.094,-0.1 -0.179,-0.2 -0.253,-0.3 C 24.35,44.469 24.3,44.39 24.255,44.31 24.214,44.239 24.176,44.168 24.145,44.096 24.106,44.005 24.079,43.915 24.057,43.825 24.034,43.731 24.01,43.636 24.007,43.542 v -0.12 c 0.004,-0.045 0.006,-0.09 0.013,-0.135 0.014,-0.086 -0.005,-0.17 -0.014,-0.255 L 24,38.125 v -0.186 c 0.04,0.031 0.087,0.06 0.129,0.09 0.126,0.094 0.258,0.186 0.393,0.277 0.11,0.073 0.224,0.145 0.34,0.217 0.179,0.11 0.359,0.219 0.551,0.324 0.002,10e-4 0.004,0.002 0.005,0.003 2.086,1.137 4.954,1.958 8.125,2.455 0.024,0.004 0.048,0.007 0.072,0.011 1.023,0.159 2.073,0.283 3.141,0.374 0.227,0.019 0.453,0.039 0.682,0.055 0.223,0.016 0.446,0.03 0.67,0.042 0.302,0.017 0.604,0.032 0.906,0.044 0.176,0.007 0.352,0.015 0.529,0.02 0.487,0.014 0.973,0.024 1.458,0.024 0.484,0 0.97,-0.009 1.455,-0.023 0.178,-0.005 0.355,-0.013 0.533,-0.02 0.3,-0.012 0.599,-0.026 0.898,-0.043 0.226,-0.013 0.451,-0.027 0.676,-0.043 0.225,-0.016 0.447,-0.035 0.671,-0.054 1.078,-0.091 2.138,-0.217 3.17,-0.377 0.015,-0.002 0.031,-0.005 0.046,-0.007 3.465,-0.542 6.564,-1.473 8.681,-2.779 0.115,-0.071 0.229,-0.142 0.338,-0.215 0.135,-0.09 0.267,-0.182 0.392,-0.276 0.045,-0.033 0.096,-0.064 0.14,-0.098 v 4.988 c -0.024,0.116 -0.04,0.234 -0.021,0.353 0.01,0.073 0.02,0.145 0.02,0.219 0,0.11 -0.031,0.222 -0.058,0.333 -0.022,0.086 -0.048,0.173 -0.085,0.259 z M 4.608,57.125 C 3.17,57.125 2,55.955 2,54.517 V 42.733 C 2,41.295 3.17,40.125 4.608,40.125 H 22 v 3 0.375 0.375 9 1 h 0.296 c 0.016,0.037 0.039,0.073 0.057,0.11 0.035,0.075 0.074,0.148 0.114,0.222 0.082,0.148 0.175,0.294 0.278,0.438 0.102,0.145 0.217,0.285 0.339,0.424 0.062,0.07 0.124,0.139 0.191,0.208 0.383,0.395 0.843,0.765 1.374,1.111 0.018,0.012 0.037,0.024 0.056,0.036 0.384,0.247 0.799,0.481 1.248,0.702 H 4.608 Z M 58,52.619 c -0.008,0.031 -0.015,0.063 -0.02,0.094 -0.409,2.493 -7.33,5.162 -16.98,5.162 -3.079,0 -5.875,-0.273 -8.276,-0.724 l 0.001,-0.008 C 27.752,56.202 25,54.613 24.23,53.273 24.229,53.272 24.228,53.271 24.228,53.269 24.193,53.207 24.168,53.146 24.141,53.086 24.089,52.961 24.04,52.837 24.02,52.713 l -0.008,-5.765 c 0.036,0.028 0.079,0.054 0.116,0.082 0.126,0.094 0.258,0.186 0.393,0.277 0.11,0.073 0.224,0.145 0.34,0.217 0.179,0.11 0.359,0.219 0.551,0.324 0.002,10e-4 0.004,0.002 0.005,0.003 2.086,1.137 4.954,1.958 8.125,2.455 0.024,0.004 0.048,0.007 0.072,0.011 1.023,0.159 2.073,0.283 3.141,0.374 0.227,0.019 0.453,0.039 0.682,0.055 0.223,0.016 0.446,0.03 0.67,0.042 0.302,0.017 0.604,0.032 0.906,0.044 0.176,0.007 0.352,0.015 0.529,0.02 0.487,0.014 0.973,0.024 1.458,0.024 0.484,0 0.97,-0.009 1.455,-0.023 0.178,-0.005 0.355,-0.013 0.533,-0.02 0.3,-0.012 0.599,-0.026 0.898,-0.043 0.226,-0.013 0.451,-0.027 0.676,-0.043 0.225,-0.016 0.447,-0.035 0.671,-0.054 1.078,-0.091 2.138,-0.217 3.17,-0.377 0.015,-0.002 0.031,-0.005 0.046,-0.007 3.465,-0.542 6.564,-1.473 8.681,-2.779 0.115,-0.071 0.229,-0.142 0.338,-0.215 0.135,-0.09 0.267,-0.182 0.392,-0.276 0.045,-0.033 0.096,-0.064 0.14,-0.098 z M 58,25.5 c 0,2.537 -7.271,5.375 -17,5.375 -9.73,0 -17,-2.838 -17,-5.375 0,-0.128 0.031,-0.258 0.068,-0.388 0.04,-0.129 0.094,-0.261 0.174,-0.397 0.003,-0.006 0.006,-0.012 0.009,-0.018 0.333,-0.556 1.004,-1.154 2.037,-1.731 0.044,-0.024 0.089,-0.048 0.134,-0.072 0.177,-0.096 0.364,-0.191 0.561,-0.285 0.229,-0.107 0.464,-0.214 0.716,-0.317 0.049,-0.021 0.1,-0.041 0.151,-0.061 1.162,-0.463 2.562,-0.874 4.138,-1.21 0.493,-0.104 0.995,-0.202 1.511,-0.288 0.137,-0.023 0.271,-0.047 0.41,-0.069 4.477,-0.69 9.7,-0.69 14.177,0 0.141,0.022 0.277,0.047 0.416,0.07 0.513,0.085 1.012,0.182 1.501,0.286 C 54.878,22.058 58,23.841 58,25.5 Z m 0,-8.983 c 0,1.438 -1.17,2.608 -2.608,2.608 h -4.63 C 50.704,19.112 50.64,19.104 50.582,19.091 49.926,18.949 49.251,18.822 48.561,18.712 48.494,18.702 48.427,18.691 48.36,18.681 45.999,18.314 43.479,18.125 41,18.125 c -2.479,0 -4.997,0.189 -7.358,0.556 -0.069,0.01 -0.137,0.021 -0.206,0.031 -0.688,0.11 -1.361,0.237 -2.015,0.378 -0.059,0.013 -0.125,0.021 -0.184,0.034 H 4.608 C 3.17,19.125 2,17.955 2,16.517 V 4.733 C 2,3.295 3.17,2.125 4.608,2.125 H 55.391 C 56.83,2.125 58,3.295 58,4.733 Z"
       id="path28"
       style="fill:#ff5850;fill-opacity:1;stroke-width:1.00157;stroke-miterlimit:4;stroke-dasharray:none" /></g><rect
     style="opacity:1;fill:none;fill-opacity:1;stroke:#4fbfa8;stroke-width:1.37662;stroke-linejoin:round;stroke-miterlimit:4;stroke-dasharray:none;stroke-opacity:1"
     id="rect996"
     width="53.314152"
     height="56.123379"
     x="3.237385"
     y="2.1883013"
     ry="3.537864" /><text
     xml:space="preserve"
     style="font-style:normal;font-weight:normal;font-size:40px;line-height:1.25;font-family:sans-serif;letter-spacing:0px;word-spacing:0px;fill:#ff5850;fill-opacity:1;stroke:none"
     x="19.430992"
     y="16.253027"
     id="text1031"><tspan
       sodipodi:role="line"
       x="19.430992"
       y="16.253027"
       style="font-style:normal;font-variant:normal;font-weight:normal;font-stretch:normal;font-size:4px;font-family:'Times New Roman';-inkscape-font-specification:'Times New Roman, Normal';font-variant-ligatures:normal;font-variant-caps:normal;font-variant-numeric:normal;font-variant-east-asian:normal;fill:#ff5850;fill-opacity:1"
       id="tspan1033">Marker </tspan></text><text
     xml:space="preserve"
     style="font-style:normal;font-weight:normal;font-size:40px;line-height:1.25;font-family:sans-serif;letter-spacing:0px;word-spacing:0px;fill:#ff5850;fill-opacity:1;stroke:none"
     x="20.145628"
     y="20.519703"
     id="text1031-5"><tspan
       sodipodi:role="line"
       x="20.145628"
       y="20.519703"
       style="font-style:normal;font-variant:normal;font-weight:normal;font-stretch:normal;font-size:4px;font-family:'Times New Roman';-inkscape-font-specification:'Times New Roman, Normal';font-variant-ligatures:normal;font-variant-caps:normal;font-variant-numeric:normal;font-variant-east-asian:normal;fill:#ff5850;fill-opacity:1"
       id="tspan1033-3">Genes</tspan></text><text
     xml:space="preserve"
     style="font-style:normal;font-weight:normal;font-size:40px;line-height:1.25;font-family:sans-serif;letter-spacing:0px;word-spacing:0px;fill:#ff5850;fill-opacity:1;stroke:none"
     x="32.567146"
     y="29.236631"
     id="text1031-3"><tspan
       sodipodi:role="line"
       x="32.567146"
       y="29.236631"
       style="font-style:normal;font-variant:normal;font-weight:normal;font-stretch:normal;font-size:4px;font-family:'Times New Roman';-inkscape-font-specification:'Times New Roman, Normal';font-variant-ligatures:normal;font-variant-caps:normal;font-variant-numeric:normal;font-variant-east-asian:normal;fill:#ff5850;fill-opacity:1"
       id="tspan1033-0">Species</tspan></text><text
     xml:space="preserve"
     style="font-style:normal;font-weight:normal;font-size:40px;line-height:1.25;font-family:sans-serif;letter-spacing:0px;word-spacing:0px;fill:#ff5850;fill-opacity:1;stroke:none"
     x="33.333519"
     y="37.280552"
     id="text1031-3-2"><tspan
       sodipodi:role="line"
       x="33.333519"
       y="37.280552"
       style="font-style:normal;font-variant:normal;font-weight:normal;font-stretch:normal;font-size:4px;font-family:'Times New Roman';-inkscape-font-specification:'Times New Roman, Normal';font-variant-ligatures:normal;font-variant-caps:normal;font-variant-numeric:normal;font-variant-east-asian:normal;fill:#ff5850;fill-opacity:1"
       id="tspan1033-0-9">Tissue</tspan></text><text
     xml:space="preserve"
     style="font-style:normal;font-weight:normal;font-size:40px;line-height:1.25;font-family:sans-serif;letter-spacing:0px;word-spacing:0px;fill:#ff5850;fill-opacity:1;stroke:none"
     x="30.791143"
     y="44.181278"
     id="text1031-3-0"><tspan
       sodipodi:role="line"
       x="30.791143"
       y="44.181278"
       style="font-style:normal;font-variant:normal;font-weight:normal;font-stretch:normal;font-size:4px;font-family:'Times New Roman';-inkscape-font-specification:'Times New Roman, Normal';font-variant-ligatures:normal;font-variant-caps:normal;font-variant-numeric:normal;font-variant-east-asian:normal;fill:#ff5850;fill-opacity:1"
       id="tspan1033-0-0">Cell Type</tspan></text><text
     xml:space="preserve"
     style="font-style:normal;font-weight:normal;font-size:40px;line-height:1.25;font-family:sans-serif;letter-spacing:0px;word-spacing:0px;fill:#ff5850;fill-opacity:1;stroke:none"
     x="31.971533"
     y="51.172806"
     id="text1031-3-8"><tspan
       sodipodi:role="line"
       x="31.971533"
       y="51.172806"
       style="font-style:normal;font-variant:normal;font-weight:normal;font-stretch:normal;font-size:4px;font-family:'Times New Roman';-inkscape-font-specification:'Times New Roman, Normal';font-variant-ligatures:normal;font-variant-caps:normal;font-variant-numeric:normal;font-variant-east-asian:normal;fill:#ff5850;fill-opacity:1"
       id="tspan1033-0-93">Gene Id</tspan></text></svg>
