<?xml version="1.0" encoding="UTF-8" standalone="no"?>
<svg
   xmlns:dc="http://purl.org/dc/elements/1.1/"
   xmlns:cc="http://creativecommons.org/ns#"
   xmlns:rdf="http://www.w3.org/1999/02/22-rdf-syntax-ns#"
   xmlns:svg="http://www.w3.org/2000/svg"
   xmlns="http://www.w3.org/2000/svg"
   xmlns:sodipodi="http://sodipodi.sourceforge.net/DTD/sodipodi-0.dtd"
   xmlns:inkscape="http://www.inkscape.org/namespaces/inkscape"
   version="1.1"
   x="0px"
   y="0px"
   viewBox="0 0 100 125"
   style="enable-background:new 0 0 100 100;"
   xml:space="preserve"
   id="svg46"
   sodipodi:docname="literature.svg"
   inkscape:version="1.0.2 (e86c870879, 2021-01-15, custom)"><metadata
     id="metadata52"><rdf:RDF><cc:Work
         rdf:about=""><dc:format>image/svg+xml</dc:format><dc:type
           rdf:resource="http://purl.org/dc/dcmitype/StillImage" /></cc:Work></rdf:RDF></metadata><defs
     id="defs50" /><sodipodi:namedview
     pagecolor="#ffffff"
     bordercolor="#666666"
     borderopacity="1"
     objecttolerance="10"
     gridtolerance="10"
     guidetolerance="10"
     inkscape:pageopacity="0"
     inkscape:pageshadow="2"
     inkscape:window-width="1920"
     inkscape:window-height="1017"
     id="namedview48"
     showgrid="false"
     inkscape:zoom="6.792"
     inkscape:cx="36.600186"
     inkscape:cy="50.721437"
     inkscape:window-x="1912"
     inkscape:window-y="-8"
     inkscape:window-maximized="1"
     inkscape:current-layer="svg46"
     inkscape:snap-text-baseline="false"
     showguides="true"
     inkscape:guide-bbox="true" /><g
     id="g40"
     style="stroke-width:1.4;stroke-miterlimit:4;stroke-dasharray:none"
     transform="matrix(0.98317803,0,0,0.98317803,-0.45584452,1.3479514)"><path
       d="m 83.911974,66.79931 c 0,-3.132148 -0.776173,-5.66048 -2.074919,-6.76381 -0.386576,-0.32949 -0.803894,-0.51544 -1.232879,-0.56244 V 41.956774 l -3.344026,-1.672013 -0.23165,0.09005 c -0.06877,0.02681 -6.895756,2.679006 -13.6761,5.68373 C 61.211264,39.839808 55.79938,35.69964 49.68893,35.69964 c -6.110662,0 -11.523157,4.140515 -13.663682,10.359033 -6.779451,-3.004869 -13.60714,-5.657116 -13.675895,-5.68388 l -0.231643,-0.09005 -3.344029,1.672013 v 17.515802 c -0.427403,0.04725 -0.846572,0.234052 -1.232878,0.562924 -1.299841,1.103329 -2.075469,3.631662 -2.075469,6.76381 0,4.07361 1.607246,7.169524 3.308347,8.182224 v 7.043754 l 27.237685,11.349431 c 0.331475,0.292436 1.534577,1.204404 3.677564,1.204404 2.143743,0 3.346909,-0.912239 3.677909,-1.204544 l 26.891523,-11.204377 0.345814,-0.14491 v -7.043816 c 1.700971,-1.012697 3.307798,-4.10861 3.307798,-8.182152 z m -4.284881,7.389577 c -1.042951,0.250309 -1.6797,0.131742 -2.193484,0.0032 C 75.075445,73.592668 75.048,73.071189 75.048,73.049235 c 0,-0.420474 1.407431,-1.124191 2.248379,-1.124191 0.310684,0 0.562098,-0.251411 0.562098,-0.562098 0,-0.310683 -0.251414,-0.562098 -0.562098,-0.562098 -0.840948,0 -2.248379,-0.703711 -2.248379,-1.124186 0,-0.420476 1.407431,-1.124187 2.248379,-1.124187 0.310684,0 0.562098,-0.251415 0.562098,-0.562097 0,-0.310689 -0.251414,-0.562099 -0.562098,-0.562099 -0.840948,0 -2.248379,-0.703716 -2.248379,-1.124191 0,-0.420472 1.407431,-1.124187 2.248379,-1.124187 0.310684,0 0.562098,-0.251403 0.562098,-0.5621 0,-0.310686 -0.251414,-0.56209 -0.562098,-0.56209 -0.840948,0 -2.248379,-0.703722 -2.248379,-1.124195 0,-0.421568 1.519407,-0.943046 2.018925,-1.114309 l 0.354604,-0.122959 c 0.267878,-0.09772 0.541241,-0.232744 0.837656,-0.382047 0.542339,-0.273362 1.157125,-0.582958 2.004658,-0.722379 0.267876,-0.04276 0.556608,0.05604 0.845339,0.301907 0.811312,0.689445 1.678604,2.602981 1.678604,5.907491 0,4.629598 -2.093585,7.13378 -3.160693,7.389575 z M 52.66079,53.152023 c -0.3457,0.162647 -0.666459,0.632565 -1.960541,0.86236 2.476938,-2.337448 14.892782,-7.988317 26.502813,-12.501135 l 1.489151,0.74454 c 0,0 -25.687152,10.732262 -26.031423,10.894235 z m -2.97186,-16.32821 c 5.65691,0 10.671513,3.878678 12.633763,9.694639 -2.158084,0.969187 -3.966568,1.822484 -5.476174,2.572997 -0.04758,-0.884588 -0.713869,-1.58782 -1.536635,-1.58782 -0.853708,0 -1.545764,0.754972 -1.545764,1.686283 0,0.491012 0.195553,0.92898 0.502539,1.237201 -2.680796,1.456013 -3.965063,2.414911 -4.577729,3.067923 -0.612665,-0.652943 -1.897073,-1.61191 -4.577801,-3.067857 0.307053,-0.308219 0.50261,-0.746255 0.50261,-1.237267 0,-0.931311 -0.692052,-1.686283 -1.545763,-1.686283 -0.822833,0 -1.489086,0.703374 -1.536704,1.587962 -1.509603,-0.750521 -3.31816,-1.603818 -5.476382,-2.573004 1.961569,-5.81582 6.976922,-9.694774 12.63404,-9.694774 z M 46.720361,53.15532 C 46.333418,52.967163 20.685642,42.257861 20.685642,42.257861 l 1.489161,-0.744613 c 11.611054,4.513437 24.029162,10.165203 26.503906,12.501337 -1.294286,-0.229583 -1.644293,-0.706552 -1.958348,-0.859265 z m -27.606348,7.434591 c 0.847535,0.139422 1.462873,0.449018 2.005209,0.722381 0.296417,0.149301 0.569234,0.28434 0.837103,0.38095 l 0.355705,0.124055 c 0.498971,0.17236 2.018384,0.693838 2.018384,1.114308 0,0.420475 -1.407987,1.124197 -2.248384,1.124197 -0.310685,0 -0.562099,0.251402 -0.562099,0.56209 0,0.310695 0.251414,0.562102 0.562099,0.562102 0.840397,0 2.248384,0.703713 2.248384,1.124186 0,0.420473 -1.407987,1.124189 -2.248384,1.124189 -0.310685,0 -0.562099,0.251411 -0.562099,0.562098 0,0.310683 0.251414,0.562098 0.562099,0.562098 0.840397,0 2.248384,0.703711 2.248384,1.124187 0,0.420474 -1.407987,1.124185 -2.248384,1.124185 -0.310685,0 -0.562099,0.251415 -0.562099,0.562099 0,0.310688 0.251414,0.562099 0.562099,0.562099 0.840397,0 2.248384,0.703716 2.248384,1.124191 0,0.02198 -0.02695,0.542337 -2.385066,1.141752 -0.53794,0.135043 -1.151633,0.245924 -2.19404,-0.0021 -1.068197,-0.255794 -3.161783,-2.759979 -3.161783,-7.389575 0,-3.30451 0.867294,-5.218047 1.679151,-5.907493 0.243719,-0.207491 0.485244,-0.311787 0.719083,-0.311787 0.04222,-10e-7 0.08459,0.0032 0.126254,0.0096 z m 0.78386,20.686649 v -5.919709 c 0.361874,0.06381 0.698501,0.103333 0.991901,0.103333 0.516533,0 0.942498,-0.08123 1.331132,-0.178947 1.505694,-0.382044 3.233701,-0.982571 3.233701,-2.231911 0,-0.714697 -0.599974,-1.294355 -1.338821,-1.68629 0.738847,-0.391933 1.338821,-0.97159 1.338821,-1.686284 0,-0.714696 -0.599974,-1.294355 -1.338821,-1.686285 0.738847,-0.391932 1.338821,-0.971595 1.338821,-1.686287 0,-0.714699 -0.599974,-1.294354 -1.338821,-1.686288 0.738847,-0.391933 1.338821,-0.971589 1.338821,-1.686288 0,-1.222991 -1.671469,-1.797164 -2.777548,-2.177017 l -0.338685,-0.118568 c -0.228895,-0.0823 -0.460538,-0.200904 -0.713593,-0.328254 -0.46041,-0.23192 -1.016395,-0.505007 -1.726908,-0.693083 V 43.147319 l 25.856388,10.773815 v 38.128555 z m 26.980581,11.357042 v -38.03215 c 0.03371,0.01716 0.07681,0.03312 0.112253,0.05014 0.09826,0.04725 0.201178,0.09263 0.313231,0.137913 0.06924,0.02802 0.139834,0.05402 0.214283,0.0807 0.118157,0.04216 0.243858,0.0803 0.375391,0.1174 0.08177,0.02312 0.161316,0.04591 0.248253,0.06641 0.149992,0.03545 0.311581,0.063 0.477081,0.08887 0.08257,0.01293 0.159254,0.02909 0.24564,0.03928 0.258679,0.03036 0.530808,0.05034 0.824344,0.05034 0.293602,0 0.565806,-0.01985 0.824476,-0.05034 0.08666,-0.0099 0.16358,-0.02636 0.2464,-0.03941 0.165087,-0.02592 0.326268,-0.05321 0.475915,-0.0886 0.0876,-0.02074 0.167765,-0.04367 0.250168,-0.067 0.130372,-0.03686 0.255184,-0.07467 0.372449,-0.116511 0.0758,-0.02708 0.14759,-0.05348 0.217917,-0.08197 0.109926,-0.04458 0.210994,-0.08906 0.307672,-0.135517 0.03646,-0.01749 0.0809,-0.03392 0.115481,-0.05148 v 38.031868 c -0.341089,0.262312 -1.247564,0.821396 -2.810478,0.821396 -1.561886,0 -2.469183,-0.559015 -2.810476,-0.821328 z m 6.745143,-0.583913 V 53.921335 l 25.85639,-10.774017 v 16.46723 c -0.710578,0.188072 -1.266363,0.461227 -1.726902,0.693217 -0.252512,0.12735 -0.484154,0.245919 -0.713603,0.329352 l -0.337032,0.117471 c -1.106629,0.379852 -2.778648,0.952924 -2.778648,2.177017 0,0.714698 0.600527,1.294354 1.339365,1.686287 -0.738838,0.391934 -1.339365,0.971589 -1.339365,1.686288 0,0.714693 0.600527,1.294355 1.339365,1.686287 -0.738838,0.391931 -1.339365,0.971589 -1.339365,1.686286 0,0.714694 0.600527,1.294351 1.339365,1.686284 -0.738838,0.391935 -1.339365,0.971593 -1.339365,1.686289 0,1.24934 1.728013,1.849867 3.234249,2.231912 0.387534,0.09879 0.813497,0.178947 1.329489,0.178947 0.293389,0 0.63029,-0.03955 0.992447,-0.103333 v 5.919708 z"
       id="path2"
       style="fill:#ff5850;fill-opacity:1;stroke-width:2.15581;stroke-miterlimit:4;stroke-dasharray:none" /><path
       d="m 55.922314,22.879158 c 0.805252,-1.224987 1.717441,-2.613592 1.712097,-5.210075 -0.01391,-6.245782 -5.34375,-6.920034 -7.634388,-6.920034 -2.84565,0 -7.621555,0.898824 -7.634388,6.920034 -0.0053,2.596483 0.907379,3.985088 1.712097,5.210075 0.486038,0.738951 0.944275,1.436727 1.147457,2.333948 0.274365,1.214628 0.697979,2.166788 1.261883,2.886288 v 0.03689 c -0.0016,1.68964 0.02994,2.808221 0.188213,3.164865 0.400486,0.900427 1.392884,2.385813 2.250534,2.716253 0.359314,0.138489 0.749108,0.207463 1.122326,0.207463 0.384446,0 0.751782,-0.07272 1.052281,-0.218689 0.610157,-0.295555 1.451298,-1.299645 1.941814,-2.147139 0.03249,-0.04304 0.0528,-0.07359 0.05688,-0.08041 l -0.008,-0.0048 c 0.09571,-0.17177 0.181328,-0.338328 0.24001,-0.486573 0.179661,-0.457698 0.189285,-1.663438 0.182869,-2.963819 l -7.36e-4,-0.224505 c 0.563835,-0.719432 0.987648,-1.671392 1.262615,-2.88582 0.202118,-0.897221 0.660885,-1.594997 1.146389,-2.333948 z m -3.703839,9.00742 c -0.382171,0.272827 -1.063041,0.586628 -2.217384,0.586628 -1.305725,0 -1.973495,-0.400021 -2.288029,-0.685414 -0.111683,-0.180393 -0.21067,-0.359182 -0.298759,-0.53376 0.552738,0.347151 1.399029,0.696775 2.586788,0.696775 1.191837,0 2.039799,-0.351963 2.592743,-0.70025 -0.09671,0.196033 -0.225441,0.412584 -0.375359,0.636021 z m -2.218452,-2.582514 v 1.33e-4 z m 2.787903,1.115309 c -0.342938,0.325294 -1.226856,0.983907 -2.786835,0.983907 -1.554291,0 -2.437611,-0.654535 -2.782688,-0.981033 -0.0087,-0.133408 -0.01604,-0.291878 -0.02232,-0.466925 0.534294,0.388256 1.443879,0.846424 2.805012,0.846424 1.366081,0 2.278339,-0.461643 2.8121,-0.8507 -0.0061,0.166758 -0.01444,0.32329 -0.02527,0.468327 z m 0.04071,-1.189633 c -0.304912,0.304777 -1.193241,1.024479 -2.827541,1.024479 -1.627613,0 -2.515007,-0.714287 -2.822857,-1.021135 -0.002,-0.139824 -0.0037,-0.287333 -0.0047,-0.442997 0.751647,0.602602 1.679412,0.919611 2.812099,0.924623 0.0096,0 0.01925,0 0.02887,0 1.134757,-0.0051 2.063789,-0.323023 2.816173,-0.927831 0,0.140892 -6.67e-4,0.288602 -0.002,0.442861 z M 50.13691,28.882589 v -8.053922 c 0.249099,-0.157334 0.437248,-0.696909 0.437248,-1.370224 0,-0.795094 -0.257057,-1.439602 -0.574131,-1.439602 -0.317074,0 -0.574131,0.644508 -0.574131,1.439602 0,0.673315 0.188148,1.21289 0.437248,1.370224 v 8.054323 c -2.057308,-0.05734 -3.248409,-1.246041 -3.836975,-3.850611 -0.235802,-1.043192 -0.757664,-1.836681 -1.261883,-2.604504 -0.777984,-1.18328 -1.582165,-2.407199 -1.577354,-4.756654 0.0107,-5.042716 3.710788,-6.100879 6.813095,-6.100879 2.539806,0 6.80133,0.792419 6.813095,6.100879 0.0053,2.349455 -0.798836,3.573374 -1.577354,4.756654 -0.503682,0.767823 -1.025547,1.561312 -1.261883,2.604504 -0.581078,2.568411 -1.8064,3.790659 -3.836975,3.85021 z m 0.664627,4.50762 c -0.416527,0.202648 -1.086502,0.197304 -1.629753,-0.01123 -0.204789,-0.07887 -0.456231,-0.295349 -0.712349,-0.580544 0.407104,0.130264 0.907982,0.222298 1.54166,0.222298 0.587967,0 1.073338,-0.07666 1.472954,-0.191284 -0.24215,0.258056 -0.47982,0.467655 -0.672512,0.56076 z"
       id="path4"
       style="fill:#ff5850;fill-opacity:1;stroke-width:1017.10979038;stroke-miterlimit:4;stroke-dasharray:none;paint-order:stroke fill markers" /><path
       d="m 58.297432,23.205322 c -0.07486,0.131001 -0.02994,0.298361 0.100525,0.373753 l 2.84565,1.642586 c 0.04277,0.02513 0.08983,0.03689 0.136882,0.03689 0.09411,0 0.186074,-0.04919 0.237404,-0.13688 0.07486,-0.131001 0.02995,-0.298361 -0.100521,-0.373753 l -2.845653,-1.642586 c -0.129395,-0.07593 -0.298359,-0.03208 -0.374287,0.09999 z"
       id="path6"
       style="fill:#ff5850;fill-opacity:1;stroke-width:1.7;stroke-miterlimit:4;stroke-dasharray:none" /><path
       d="m 62.692631,22.089413 c 0.120842,0 0.232059,-0.08074 0.264141,-0.20265 0.03957,-0.146506 -0.04705,-0.296221 -0.193558,-0.335789 l -3.172886,-0.850166 c -0.143299,-0.03369 -0.296222,0.04866 -0.33472,0.193559 -0.03957,0.146507 0.04705,0.296223 0.193561,0.335789 l 3.172882,0.850166 c 0.02353,0.0059 0.04705,0.0091 0.07058,0.0091 z"
       id="path8"
       style="fill:#ff5850;fill-opacity:1;stroke-width:1.7;stroke-miterlimit:4;stroke-dasharray:none" /><path
       d="m 47.44899,9.1684885 c 0.02352,0 0.04705,-0.00321 0.07058,-0.00909 0.146508,-0.039568 0.233128,-0.1892824 0.194096,-0.3357897 L 46.863499,5.6507248 C 46.823929,5.504218 46.673145,5.4224094 46.528244,5.4566301 46.381737,5.4961976 46.295116,5.6459125 46.334148,5.7918843 l 0.850167,3.17342 c 0.03315,0.1224452 0.143833,0.2031842 0.264675,0.2031842 z"
       id="path10"
       style="fill:#ff5850;fill-opacity:1;stroke-width:1.7;stroke-miterlimit:4;stroke-dasharray:none" /><path
       d="m 44.835396,10.015982 c 0.05026,0.08769 0.142765,0.136881 0.23687,0.136881 0.04652,0 0.09357,-0.01176 0.136882,-0.03689 0.131001,-0.07539 0.175915,-0.2427524 0.09999,-0.3737529 L 43.66655,6.8976355 C 43.591694,6.766635 43.422729,6.7206512 43.292797,6.7976475 43.161796,6.8730393 43.116882,7.0403991 43.19281,7.1713996 Z"
       id="path12"
       style="fill:#ff5850;fill-opacity:1;stroke-width:1.7;stroke-miterlimit:4;stroke-dasharray:none" /><path
       d="m 42.837772,11.639318 c 0.05347,0.05347 0.123517,0.08021 0.193562,0.08021 0.07005,0 0.140087,-0.02674 0.193558,-0.08021 0.106941,-0.106939 0.106941,-0.28018 0,-0.38712 L 40.901638,8.9289446 c -0.106937,-0.1069393 -0.280178,-0.1069393 -0.387119,0 -0.106938,0.1069393 -0.106938,0.2801809 0,0.3871202 z"
       id="path14"
       style="fill:#ff5850;fill-opacity:1;stroke-width:1.7;stroke-miterlimit:4;stroke-dasharray:none" /><path
       d="m 41.327793,13.723562 c 0.04331,0.02513 0.09036,0.03689 0.136879,0.03689 0.09411,0 0.186611,-0.04919 0.236874,-0.136882 0.07592,-0.131 0.03101,-0.298361 -0.09999,-0.373752 l -2.844582,-1.642586 c -0.129928,-0.07486 -0.298359,-0.03048 -0.373752,0.09999 -0.07592,0.131 -0.03101,0.298361 0.09999,0.373752 z"
       id="path16"
       style="fill:#ff5850;fill-opacity:1;stroke-width:1.7;stroke-miterlimit:4;stroke-dasharray:none" /><path
       d="m 37.236298,15.277923 3.172885,0.850167 c 0.02406,0.0059 0.04759,0.0091 0.07111,0.0091 0.120842,0 0.231525,-0.08074 0.264675,-0.203183 0.03903,-0.145972 -0.04759,-0.295687 -0.194092,-0.335254 l -3.17342,-0.850167 c -0.143299,-0.03369 -0.295688,0.04759 -0.335254,0.194095 -0.03903,0.145971 0.04759,0.295687 0.194092,0.335254 z"
       id="path18"
       style="fill:#ff5850;fill-opacity:1;stroke-width:1.7;stroke-miterlimit:4;stroke-dasharray:none" /><path
       d="m 36.859341,18.688213 h 3.285167 c 0.151322,0 0.273766,-0.122446 0.273766,-0.273765 0,-0.151318 -0.122444,-0.273764 -0.273766,-0.273764 h -3.285167 c -0.151322,0 -0.273766,0.122446 -0.273766,0.273764 0,0.151319 0.122444,0.273765 0.273766,0.273765 z"
       id="path20"
       style="fill:#ff5850;fill-opacity:1;stroke-width:1.7;stroke-miterlimit:4;stroke-dasharray:none" /><path
       d="m 40.744972,20.894903 c -0.03903,-0.146507 -0.187675,-0.228851 -0.335789,-0.194095 l -3.172885,0.850166 c -0.146504,0.03957 -0.233124,0.189283 -0.194092,0.335255 0.03315,0.122446 0.143833,0.203184 0.264675,0.203184 0.02353,0 0.04705,-0.0032 0.07058,-0.0091 l 3.17342,-0.850166 c 0.146504,-0.03957 0.233124,-0.189282 0.194092,-0.335253 z"
       id="path22"
       style="fill:#ff5850;fill-opacity:1;stroke-width:1.7;stroke-miterlimit:4;stroke-dasharray:none" /><path
       d="m 38.620091,25.258554 c 0.04652,0 0.09357,-0.01176 0.136882,-0.03689 l 2.844582,-1.642586 c 0.131,-0.07539 0.175915,-0.242752 0.09999,-0.373753 -0.07539,-0.130998 -0.244358,-0.176983 -0.373753,-0.09999 l -2.844581,1.642586 c -0.131001,0.07539 -0.175915,0.242752 -0.09999,0.373753 0.05026,0.08769 0.142765,0.13688 0.23687,0.13688 z"
       id="path24"
       style="fill:#ff5850;fill-opacity:1;stroke-width:1.7;stroke-miterlimit:4;stroke-dasharray:none" /><path
       d="m 50.000023,8.8326998 c 0.151317,0 0.273765,-0.1224451 0.273765,-0.2737646 V 5.2737642 C 50.273789,5.1224451 50.151341,5 50.000023,5 49.848705,5 49.726257,5.1224451 49.726257,5.2737641 v 3.285171 c 0,0.1513196 0.122448,0.2737647 0.273766,0.2737647 z"
       id="path26"
       style="fill:#ff5850;fill-opacity:1;stroke-width:1.7;stroke-miterlimit:4;stroke-dasharray:none" /><path
       d="m 52.479942,9.159399 c 0.02352,0.00588 0.04706,0.00909 0.07058,0.00909 0.120842,0 0.232059,-0.080739 0.264141,-0.2031841 l 0.850166,-3.17342 c 0.03957,-0.1459718 -0.04705,-0.2956867 -0.193561,-0.3352542 -0.1433,-0.033686 -0.296219,0.047588 -0.334721,0.1940947 l -0.850166,3.1728845 c -0.03957,0.1465072 0.04705,0.2962217 0.193561,0.3357891 z"
       id="path28"
       style="fill:#ff5850;fill-opacity:1;stroke-width:1.7;stroke-miterlimit:4;stroke-dasharray:none" /><path
       d="m 54.92778,10.152864 c 0.0941,0 0.186073,-0.04919 0.237404,-0.136882 L 56.80777,7.1713996 c 0.07486,-0.1310005 0.02995,-0.2983603 -0.100521,-0.3737521 -0.128327,-0.075392 -0.298363,-0.032082 -0.374287,0.099988 l -1.642586,2.8445816 c -0.07486,0.1310005 -0.02994,0.2983609 0.100521,0.3737529 0.04277,0.02513 0.08983,0.03689 0.136883,0.03689 z"
       id="path30"
       style="fill:#ff5850;fill-opacity:1;stroke-width:2;stroke-miterlimit:4;stroke-dasharray:none" /><path
       d="m 56.775688,11.639318 c 0.05347,0.05347 0.122982,0.08021 0.193562,0.08021 0.07058,0 0.140091,-0.02674 0.193557,-0.08021 l 2.32272,-2.3232532 c 0.106937,-0.1069393 0.106937,-0.2801809 0,-0.3871202 -0.106937,-0.1069393 -0.280182,-0.1069393 -0.387119,0 l -2.32272,2.3232534 c -0.106937,0.106939 -0.106937,0.280181 0,0.38712 z"
       id="path32"
       style="fill:#ff5850;fill-opacity:1;stroke-width:1.7;stroke-miterlimit:4;stroke-dasharray:none" /><path
       d="m 58.297432,13.623574 c 0.05133,0.08769 0.143299,0.136882 0.237408,0.136882 0.04705,0 0.0941,-0.01176 0.136879,-0.03689 l 2.845653,-1.642586 c 0.130467,-0.07539 0.175381,-0.242752 0.100521,-0.373752 -0.07806,-0.13207 -0.24596,-0.175915 -0.374287,-0.09999 l -2.845649,1.642586 c -0.130467,0.07539 -0.175381,0.242752 -0.100525,0.373752 z"
       id="path34"
       style="fill:#ff5850;fill-opacity:1;stroke-width:1.7;stroke-miterlimit:4;stroke-dasharray:none" /><path
       d="m 59.255608,15.934529 c 0.03208,0.121911 0.143299,0.202649 0.264141,0.202649 0.02352,0 0.04705,-0.0032 0.07058,-0.0091 l 3.172886,-0.850167 c 0.146503,-0.03957 0.233124,-0.189283 0.193558,-0.335789 -0.0385,-0.145972 -0.19035,-0.22778 -0.334721,-0.19356 l -3.172882,0.850167 c -0.146507,0.03957 -0.233127,0.189282 -0.193561,0.335788 z"
       id="path36"
       style="fill:#ff5850;fill-opacity:1;stroke-width:1.7;stroke-miterlimit:4;stroke-dasharray:none" /><path
       d="m 59.581772,18.414448 c 0,0.151319 0.122982,0.273765 0.273765,0.273765 h 3.285172 c 0.150783,0 0.273762,-0.122446 0.273762,-0.273765 0,-0.151318 -0.122979,-0.273764 -0.273762,-0.273764 h -3.285172 c -0.150783,0 -0.273765,0.122446 -0.273765,0.273764 z"
       id="path38"
       style="fill:#ff5850;fill-opacity:1;stroke-width:1.7;stroke-miterlimit:4;stroke-dasharray:none" /><text
       xml:space="preserve"
       style="font-style:normal;font-weight:normal;font-size:40.6844px;line-height:1.25;font-family:sans-serif;letter-spacing:0px;word-spacing:0px;fill:#000000;fill-opacity:1;stroke:none;stroke-width:1.42395"
       x="51.32259"
       y="46.896793"
       id="text1774"
       transform="rotate(24.698416)"><tspan
         sodipodi:role="line"
         id="tspan1772"
         x="51.32259"
         y="46.896793"
         style="font-style:normal;font-variant:normal;font-weight:normal;font-stretch:normal;font-size:5.42459px;font-family:'Times New Roman';-inkscape-font-specification:'Times New Roman, Normal';font-variant-ligatures:normal;font-variant-caps:normal;font-variant-numeric:normal;font-variant-east-asian:normal;fill:#ff5850;fill-opacity:1;stroke-width:1.42395">Plant </tspan></text><text
       xml:space="preserve"
       style="font-style:normal;font-weight:normal;font-size:40.6844px;line-height:1.25;font-family:sans-serif;letter-spacing:0px;word-spacing:0px;fill:#000000;fill-opacity:1;stroke:none;stroke-width:1.42395"
       x="23.916965"
       y="85.360641"
       id="text1784"
       transform="rotate(-23.206029)"
       inkscape:transform-center-x="-0.56375057"
       inkscape:transform-center-y="6.0812672"><tspan
         sodipodi:role="line"
         id="tspan1782"
         x="23.916965"
         y="85.360641"
         style="font-style:normal;font-variant:normal;font-weight:normal;font-stretch:normal;font-size:5.42459px;font-family:'Times New Roman';-inkscape-font-specification:'Times New Roman, Normal';font-variant-ligatures:normal;font-variant-caps:normal;font-variant-numeric:normal;font-variant-east-asian:normal;fill:#ff5850;fill-opacity:1;stroke-width:1.42395">Single Cell</tspan></text></g><rect
     style="opacity:1;fill:none;fill-opacity:1;stroke:#4fbfa8;stroke-width:2.08991;stroke-linejoin:round;stroke-miterlimit:4;stroke-dasharray:none;stroke-opacity:1;paint-order:markers fill stroke"
     id="rect1766"
     width="85.105087"
     height="93.410088"
     x="5.3923588"
     y="3.417094"
     ry="7.8897605" /></svg>
