<svg id="SvgjsSvg1250" width="664.5" height="638.5" xmlns="http://www.w3.org/2000/svg" version="1.1" xmlns:xlink="http://www.w3.org/1999/xlink" xmlns:svgjs="http://svgjs.com/svgjs"><defs id="SvgjsDefs1251"><marker id="SvgjsMarker1261" markerWidth="16" markerHeight="12" refX="16" refY="6" viewBox="0 0 16 12" orient="auto" markerUnits="userSpaceOnUse" stroke-dasharray="0,0"><path id="SvgjsPath1262" d="M0,2 L14,6 L0,11 L0,2" fill="#323232" stroke="#323232" stroke-width="2"></path></marker><marker id="SvgjsMarker1271" markerWidth="16" markerHeight="12" refX="16" refY="6" viewBox="0 0 16 12" orient="auto" markerUnits="userSpaceOnUse" stroke-dasharray="0,0"><path id="SvgjsPath1272" d="M0,2 L14,6 L0,11 L0,2" fill="#323232" stroke="#323232" stroke-width="2"></path></marker><marker id="SvgjsMarker1283" markerWidth="16" markerHeight="12" refX="16" refY="6" viewBox="0 0 16 12" orient="auto" markerUnits="userSpaceOnUse" stroke-dasharray="0,0"><path id="SvgjsPath1284" d="M0,2 L14,6 L0,11 L0,2" fill="#323232" stroke="#323232" stroke-width="2"></path></marker><marker id="SvgjsMarker1295" markerWidth="16" markerHeight="12" refX="16" refY="6" viewBox="0 0 16 12" orient="auto" markerUnits="userSpaceOnUse" stroke-dasharray="0,0"><path id="SvgjsPath1296" d="M0,2 L14,6 L0,11 L0,2" fill="#323232" stroke="#323232" stroke-width="2"></path></marker><marker id="SvgjsMarker1305" markerWidth="16" markerHeight="12" refX="16" refY="6" viewBox="0 0 16 12" orient="auto" markerUnits="userSpaceOnUse" stroke-dasharray="0,0"><path id="SvgjsPath1306" d="M0,2 L14,6 L0,11 L0,2" fill="#323232" stroke="#323232" stroke-width="2"></path></marker><marker id="SvgjsMarker1335" markerWidth="16" markerHeight="12" refX="16" refY="6" viewBox="0 0 16 12" orient="auto" markerUnits="userSpaceOnUse" stroke-dasharray="0,0"><path id="SvgjsPath1336" d="M0,2 L14,6 L0,11 L0,2" fill="#323232" stroke="#323232" stroke-width="2"></path></marker><marker id="SvgjsMarker1339" markerWidth="16" markerHeight="12" refX="16" refY="6" viewBox="0 0 16 12" orient="auto" markerUnits="userSpaceOnUse" stroke-dasharray="0,0"><path id="SvgjsPath1340" d="M0,2 L14,6 L0,11 L0,2" fill="#323232" stroke="#323232" stroke-width="2"></path></marker><marker id="SvgjsMarker1359" markerWidth="16" markerHeight="12" refX="16" refY="6" viewBox="0 0 16 12" orient="auto" markerUnits="userSpaceOnUse" stroke-dasharray="0,0"><path id="SvgjsPath1360" d="M0,2 L14,6 L0,11 L0,2" fill="#323232" stroke="#323232" stroke-width="2"></path></marker></defs><rect id="SvgjsRect1252" width="664.5" height="638.5" fill="#f2fcff"></rect><g id="SvgjsG1253" transform="translate(25,25)"><path id="SvgjsPath1254" d="M 0 4Q 0 0 4 0L 241 0Q 245 0 245 4L 245 53Q 245 57 241 57L 4 57Q 0 57 0 53Z" stroke="rgba(50,50,50,1)" stroke-width="2" fill-opacity="1" fill="#ffffff"></path><g id="SvgjsG1255"><text id="SvgjsText1256" font-family="&quot;Times New Roman&quot;" text-anchor="middle" font-size="23px" width="225px" fill="#323232" font-weight="400" align="middle" lineHeight="125%" anchor="middle" family="&quot;Times New Roman&quot;" size="23px" weight="400" font-style="" opacity="1" y="9.625" transform="rotate(0)"><tspan id="SvgjsTspan1257" dy="28" x="122.5"><tspan id="SvgjsTspan1258" style="text-decoration:;">Cell Ranger count</tspan></tspan></text></g></g><g id="SvgjsG1259"><path id="SvgjsPath1260" d="M147.5 82L147.5 100.5L147.5 100.5L147.5 119" stroke="#323232" stroke-width="2" fill="none" marker-end="url(#SvgjsMarker1261)"></path></g><g id="SvgjsG1263" transform="translate(25,119)"><path id="SvgjsPath1264" d="M 0 4Q 0 0 4 0L 241 0Q 245 0 245 4L 245 53Q 245 57 241 57L 4 57Q 0 57 0 53Z" stroke="rgba(50,50,50,1)" stroke-width="2" fill-opacity="1" fill="#ffffff"></path><g id="SvgjsG1265"><text id="SvgjsText1266" font-family="&quot;Times New Roman&quot;" text-anchor="middle" font-size="23px" width="225px" fill="#323232" font-weight="400" align="middle" lineHeight="125%" anchor="middle" family="&quot;Times New Roman&quot;" size="23px" weight="400" font-style="" opacity="1" y="9.625" transform="rotate(0)"><tspan id="SvgjsTspan1267" dy="28" x="122.5"><tspan id="SvgjsTspan1268" style="text-decoration:;">Quality Control</tspan></tspan></text></g></g><g id="SvgjsG1269"><path id="SvgjsPath1270" d="M147.5 176L147.5 199L147.5 199L147.5 222" stroke="#323232" stroke-width="2" fill="none" marker-end="url(#SvgjsMarker1271)"></path></g><g id="SvgjsG1273" transform="translate(25,222)"><path id="SvgjsPath1274" d="M 0 4Q 0 0 4 0L 241 0Q 245 0 245 4L 245 56Q 245 60 241 60L 4 60Q 0 60 0 56Z" stroke="rgba(50,50,50,1)" stroke-width="2" fill-opacity="1" fill="#ffffff"></path><g id="SvgjsG1275"><text id="SvgjsText1276" font-family="&quot;Times New Roman&quot;" text-anchor="middle" font-size="23px" width="225px" fill="#323232" font-weight="400" align="middle" lineHeight="125%" anchor="middle" family="&quot;Times New Roman&quot;" size="23px" weight="400" font-style="" opacity="1" y="-2.875" transform="rotate(0)"><tspan id="SvgjsTspan1277" dy="28" x="122.5"><tspan id="SvgjsTspan1278" style="text-decoration:;">Normalization and </tspan></tspan><tspan id="SvgjsTspan1279" dy="28" x="122.5"><tspan id="SvgjsTspan1280" style="text-decoration:;">ScaleData</tspan></tspan></text></g></g><g id="SvgjsG1281"><path id="SvgjsPath1282" d="M147.5 282L147.5 298.5L147.5 298.5L147.5 315" stroke="#323232" stroke-width="2" fill="none" marker-end="url(#SvgjsMarker1283)"></path></g><g id="SvgjsG1285" transform="translate(25,315)"><path id="SvgjsPath1286" d="M 0 4Q 0 0 4 0L 241 0Q 245 0 245 4L 245 66Q 245 70 241 70L 4 70Q 0 70 0 66Z" stroke="rgba(50,50,50,1)" stroke-width="2" fill-opacity="1" fill="#ffffff"></path><g id="SvgjsG1287"><text id="SvgjsText1288" font-family="&quot;Times New Roman&quot;" text-anchor="middle" font-size="23px" width="225px" fill="#323232" font-weight="400" align="middle" lineHeight="125%" anchor="middle" family="&quot;Times New Roman&quot;" size="23px" weight="400" font-style="" opacity="1" y="2.125" transform="rotate(0)"><tspan id="SvgjsTspan1289" dy="28" x="122.5"><tspan id="SvgjsTspan1290" style="text-decoration:;">Dimensionality </tspan></tspan><tspan id="SvgjsTspan1291" dy="28" x="122.5"><tspan id="SvgjsTspan1292" style="text-decoration:;">Reduction</tspan></tspan></text></g></g><g id="SvgjsG1293"><path id="SvgjsPath1294" d="M147.5 385L147.5 401L147.5 401L147.5 417" stroke="#323232" stroke-width="2" fill="none" marker-end="url(#SvgjsMarker1295)"></path></g><g id="SvgjsG1297" transform="translate(25,417)"><path id="SvgjsPath1298" d="M 0 4Q 0 0 4 0L 241 0Q 245 0 245 4L 245 56Q 245 60 241 60L 4 60Q 0 60 0 56Z" stroke="rgba(50,50,50,1)" stroke-width="2" fill-opacity="1" fill="#ffffff"></path><g id="SvgjsG1299"><text id="SvgjsText1300" font-family="&quot;Times New Roman&quot;" text-anchor="middle" font-size="23px" width="225px" fill="#323232" font-weight="400" align="middle" lineHeight="125%" anchor="middle" family="&quot;Times New Roman&quot;" size="23px" weight="400" font-style="" opacity="1" y="11.125" transform="rotate(0)"><tspan id="SvgjsTspan1301" dy="28" x="122.5"><tspan id="SvgjsTspan1302" style="text-decoration:;">Clustering</tspan></tspan></text></g></g><g id="SvgjsG1303"><path id="SvgjsPath1304" d="M147.5 477L147.5 491.5L147.5 491.5L147.5 506" stroke="#323232" stroke-width="2" fill="none" marker-end="url(#SvgjsMarker1305)"></path></g><g id="SvgjsG1307" transform="translate(25,506)"><path id="SvgjsPath1308" d="M 0 4Q 0 0 4 0L 241 0Q 245 0 245 4L 245 71Q 245 75 241 75L 4 75Q 0 75 0 71Z" stroke="rgba(50,50,50,1)" stroke-width="2" fill-opacity="1" fill="#ffffff"></path><g id="SvgjsG1309"><text id="SvgjsText1310" font-family="&quot;Times New Roman&quot;" text-anchor="middle" font-size="23px" width="225px" fill="#323232" font-weight="400" align="middle" lineHeight="125%" anchor="middle" family="&quot;Times New Roman&quot;" size="23px" weight="400" font-style="" opacity="1" y="4.625" transform="rotate(0)"><tspan id="SvgjsTspan1311" dy="28" x="122.5"><tspan id="SvgjsTspan1312" style="text-decoration:;">Marker Genes </tspan></tspan><tspan id="SvgjsTspan1313" dy="28" x="122.5"><tspan id="SvgjsTspan1314" style="text-decoration:;">Identification</tspan></tspan></text></g></g><g id="SvgjsG1315" transform="translate(317,55.5)"><path id="SvgjsPath1316" d="M 18 0Q 9 0 9 9L 9 83Q 9 92 0 92Q 9 92 9 101L 9 175Q 9 184 18 184" stroke="rgba(50,50,50,1)" stroke-width="2" fill="none"></path><path id="SvgjsPath1317" d="M 303 184Q 312 184 312 175L 312 101Q 312 92 321 92Q 312 92 312 83L 312 9Q 312 0 303 0" stroke="rgba(50,50,50,1)" stroke-width="2" fill="none"></path><path id="SvgjsPath1318" d="M 0 0L 321 0L 321 184L 0 184Z" stroke="none" fill="none"></path><g id="SvgjsG1319"><text id="SvgjsText1320" font-family="&quot;Times New Roman&quot;" text-anchor="middle" font-size="23px" width="301px" fill="#323232" font-weight="400" align="middle" lineHeight="125%" anchor="middle" family="&quot;Times New Roman&quot;" size="23px" weight="400" font-style="" opacity="1" y="3.125" transform="rotate(0)"><tspan id="SvgjsTspan1321" dy="28" x="160.5"><tspan id="SvgjsTspan1322" style="text-decoration:;">MADs</tspan></tspan><tspan id="SvgjsTspan1323" dy="28" x="160.5"><tspan id="SvgjsTspan1324" style="text-decoration:;">raw_nCount_RNA</tspan></tspan><tspan id="SvgjsTspan1325" dy="28" x="160.5"><tspan id="SvgjsTspan1326" style="text-decoration:;">raw_nFeature_RNA</tspan></tspan><tspan id="SvgjsTspan1327" dy="28" x="160.5"><tspan id="SvgjsTspan1328" style="text-decoration:;">log10GenesPerUMI</tspan></tspan><tspan id="SvgjsTspan1329" dy="28" x="160.5"><tspan id="SvgjsTspan1330" style="text-decoration:;">mitoRatio</tspan></tspan><tspan id="SvgjsTspan1331" dy="28" x="160.5"><tspan id="SvgjsTspan1332" style="text-decoration:;">Gene Expressiom At Least Cell</tspan></tspan></text></g></g><g id="SvgjsG1333"><path id="SvgjsPath1334" d="M270 147.5L293.5 147.5L293.5 147.5L317 147.5" stroke="#323232" stroke-width="2" fill="none" marker-end="url(#SvgjsMarker1335)"></path></g><g id="SvgjsG1337"><path id="SvgjsPath1338" d="M270 350L293.5 350L293.5 350L317 350" stroke="#323232" stroke-width="2" fill="none" marker-end="url(#SvgjsMarker1339)"></path></g><g id="SvgjsG1341" transform="translate(317,283)"><path id="SvgjsPath1342" d="M 18 0Q 9 0 9 9L 9 58Q 9 67 0 67Q 9 67 9 76L 9 125Q 9 134 18 134" stroke="rgba(50,50,50,1)" stroke-width="2" fill="none"></path><path id="SvgjsPath1343" d="M 303 134Q 312 134 312 125L 312 76Q 312 67 321 67Q 312 67 312 58L 312 9Q 312 0 303 0" stroke="rgba(50,50,50,1)" stroke-width="2" fill="none"></path><path id="SvgjsPath1344" d="M 0 0L 321 0L 321 134L 0 134Z" stroke="none" fill="none"></path><g id="SvgjsG1345"><text id="SvgjsText1346" font-family="&quot;Times New Roman&quot;" text-anchor="middle" font-size="23px" width="301px" fill="#323232" font-weight="400" align="middle" lineHeight="125%" anchor="middle" family="&quot;Times New Roman&quot;" size="23px" weight="400" font-style="" opacity="1" y="-7.875" transform="rotate(0)"><tspan id="SvgjsTspan1347" dy="28" x="160.5"><tspan id="SvgjsTspan1348" style="text-decoration:;">PCA</tspan></tspan><tspan id="SvgjsTspan1349" dy="28" x="160.5"><tspan id="SvgjsTspan1350" style="text-decoration:;"> </tspan></tspan><tspan id="SvgjsTspan1351" dy="28" x="160.5"><tspan id="SvgjsTspan1352" style="text-decoration:;">tSNE</tspan></tspan><tspan id="SvgjsTspan1353" dy="28" x="160.5"><tspan id="SvgjsTspan1354" style="text-decoration:;"> </tspan></tspan><tspan id="SvgjsTspan1355" dy="28" x="160.5"><tspan id="SvgjsTspan1356" style="text-decoration:;">UMAP</tspan></tspan></text></g></g><g id="SvgjsG1357"><path id="SvgjsPath1358" d="M270 543.5L292.75 543.5L292.75 543.5L315.5 543.5" stroke="#323232" stroke-width="2" fill="none" marker-end="url(#SvgjsMarker1359)"></path></g><g id="SvgjsG1361" transform="translate(315.5,473.5)"><path id="SvgjsPath1362" d="M 18 0Q 9 0 9 9L 9 61Q 9 70 0 70Q 9 70 9 79L 9 131Q 9 140 18 140" stroke="rgba(50,50,50,1)" stroke-width="2" fill="none"></path><path id="SvgjsPath1363" d="M 306 140Q 315 140 315 131L 315 79Q 315 70 324 70Q 315 70 315 61L 315 9Q 315 0 306 0" stroke="rgba(50,50,50,1)" stroke-width="2" fill="none"></path><path id="SvgjsPath1364" d="M 0 0L 324 0L 324 140L 0 140Z" stroke="none" fill="none"></path><g id="SvgjsG1365"><text id="SvgjsText1366" font-family="&quot;Times New Roman&quot;" text-anchor="middle" font-size="23px" width="304px" fill="#323232" font-weight="400" align="middle" lineHeight="125%" anchor="middle" family="&quot;Times New Roman&quot;" size="23px" weight="400" font-style="" opacity="1" y="23.125" transform="rotate(0)"><tspan id="SvgjsTspan1367" dy="28" x="162"><tspan id="SvgjsTspan1368" style="text-decoration:;">Marker gene identification</tspan></tspan><tspan id="SvgjsTspan1369" dy="28" x="162"><tspan id="SvgjsTspan1370" style="text-decoration:;"> </tspan></tspan><tspan id="SvgjsTspan1371" dy="28" x="162"><tspan id="SvgjsTspan1372" style="text-decoration:;">Cluster modification</tspan></tspan></text></g></g></svg>